<svg width="44" height="44" viewBox="0 0 44 44" fill="none" xmlns="http://www.w3.org/2000/svg">
    <path d="M43.8533 17.5907C43.2933 18.185 42.7447 18.7793 42.1847 19.3622C41.7275 19.8308 41.2589 20.288 40.7903 20.7566C40.1845 21.3624 40.0245 21.3966 39.2245 21.0766C39.2245 21.6824 39.2245 22.2767 39.2245 22.871C39.2245 24.4711 39.2245 26.0712 39.2245 27.6713C39.2245 28.3114 38.7902 28.7228 38.2416 28.6428C37.7958 28.5743 37.5101 28.2199 37.5101 27.6828C37.5101 25.8312 37.5101 23.9682 37.5101 22.1167C37.5101 21.4309 37.4987 20.7452 37.5215 20.0594C37.5329 19.7737 37.4529 19.5908 37.2243 19.4079C32.504 15.7277 27.7837 12.0475 23.0749 8.36723C22.7091 8.0815 22.332 7.79577 21.9319 7.47575C21.1319 8.09293 20.3318 8.72154 19.5432 9.33872C15.2458 12.6989 10.9484 16.0477 6.63951 19.4079C6.43379 19.568 6.31949 19.728 6.31949 20.0023C6.33092 27.2713 6.33092 34.5404 6.33092 41.8208C6.33092 41.9351 6.33092 42.038 6.33092 42.1751C7.13097 42.1751 7.89674 42.1751 8.73108 42.1751C8.73108 42.0266 8.73108 41.878 8.73108 41.7294C8.73108 39.3064 8.73108 36.8719 8.73108 34.4489C8.73108 34.3232 8.71965 34.186 8.74251 34.0603C8.78822 33.626 9.14253 33.2946 9.57685 33.2831C10.0226 33.2717 10.3998 33.6031 10.4455 34.0718C10.4569 34.2318 10.4569 34.3803 10.4569 34.5404C10.4569 36.9291 10.4569 39.3064 10.4569 41.6951C10.4569 41.8437 10.4569 42.0037 10.4569 42.1751C19.4975 42.1751 28.4924 42.1751 37.5444 42.1751C37.5444 42.0266 37.5444 41.878 37.5444 41.718C37.5444 39.3635 37.5444 37.0091 37.5444 34.6432C37.5444 34.5289 37.5444 34.4146 37.5444 34.3003C37.5558 33.7403 37.8987 33.3631 38.3901 33.3631C38.893 33.3517 39.2473 33.7403 39.2588 34.3232C39.2588 34.5975 39.2588 34.8604 39.2588 35.1347C39.2588 37.4663 39.2588 39.7864 39.2588 42.1866C39.4073 42.1866 39.5445 42.1866 39.6816 42.1866C40.6989 42.1866 41.7161 42.2094 42.7218 42.1751C43.2476 42.1637 43.6362 42.3237 43.8876 42.7809C43.8876 42.9523 43.8876 43.1238 43.8876 43.2952C43.6362 43.7638 43.2476 43.901 42.7218 43.901C28.8695 43.8895 15.0172 43.8895 1.16487 43.901C0.639126 43.901 0.250529 43.7524 -0.000915527 43.2952C-0.000915527 43.1238 -0.000915527 42.9523 -0.000915527 42.7809C0.250529 42.3123 0.639126 42.1523 1.16487 42.1751C2.15922 42.2094 3.165 42.1866 4.15935 42.1866C4.30793 42.1866 4.45652 42.1866 4.6051 42.1866C4.6051 35.1118 4.6051 28.0942 4.6051 21.0652C3.8279 21.3966 3.66789 21.3624 3.06214 20.7452C2.58211 20.2651 2.10208 19.808 1.64491 19.3165C1.0963 18.745 0.547691 18.1621 0.0105138 17.5793C0.0105138 17.4078 0.0105138 17.2364 0.0105138 17.0649C0.227671 16.8478 0.421969 16.5963 0.661984 16.402C5.69088 12.4704 10.7198 8.53867 15.7487 4.61842C17.7259 3.07546 19.7146 1.54393 21.6919 0.000976562C21.8634 0.000976562 22.0348 0.000976562 22.2062 0.000976562C22.3548 0.10384 22.5034 0.206704 22.652 0.320997C24.8807 2.05825 27.1094 3.79551 29.3381 5.53276C30.1039 6.13852 30.8811 6.73284 31.7268 7.38431C31.7268 6.26424 31.7268 5.24703 31.7268 4.22982C31.7268 3.46406 32.0354 3.1669 32.7898 3.1669C34.2984 3.1669 35.8185 3.1669 37.3272 3.1669C38.1158 3.1669 38.4016 3.46406 38.4016 4.26411C38.4016 6.89285 38.413 9.52159 38.3901 12.1389C38.3901 12.4932 38.5044 12.7104 38.7787 12.9161C40.2645 14.0476 41.7389 15.202 43.2019 16.3678C43.4533 16.562 43.659 16.8249 43.8876 17.0535C43.8533 17.2478 43.8533 17.4192 43.8533 17.5907ZM4.04506 19.2251C4.12507 19.1679 4.23936 19.0879 4.35365 18.9965C9.94258 14.6305 15.5429 10.2645 21.1319 5.8985C21.7948 5.38418 22.0462 5.38418 22.7091 5.90993C28.0809 10.1045 33.4412 14.2876 38.813 18.4822C39.1445 18.745 39.4874 18.9965 39.7617 19.2136C40.4017 18.5736 41.0075 17.9793 41.6246 17.3507C35.0756 12.2418 28.5038 7.09858 21.9091 1.95539C15.3029 7.11001 8.73108 12.2418 2.18208 17.3621C2.81069 17.9907 3.41645 18.5965 4.04506 19.2251ZM36.6186 11.2703C36.6186 9.09871 36.6186 7.01857 36.6186 4.92701C35.5328 4.92701 34.4813 4.92701 33.3955 4.92701C33.3955 6.1728 33.3955 7.39574 33.407 8.61868C33.407 8.69868 33.4755 8.80155 33.5441 8.85869C34.5499 9.64731 35.5671 10.4359 36.6186 11.2703Z" fill="#C7AD7D"/>
    <path d="M21.9319 18.6993C24.5721 18.6993 27.2123 18.6993 29.8524 18.6993C30.7096 18.6993 30.9954 18.9736 30.9954 19.8194C30.9954 25.134 30.9954 30.4372 30.9954 35.7519C30.9954 36.5976 30.7096 36.8719 29.8524 36.8719C24.5607 36.8719 19.2575 36.8719 13.9657 36.8719C13.0971 36.8719 12.8228 36.5976 12.8228 35.7176C12.8228 30.4372 12.8228 25.1569 12.8228 19.8651C12.8228 18.9622 13.0856 18.6993 14 18.6993C16.6402 18.6993 19.2918 18.6993 21.9319 18.6993ZM21.029 20.448C18.846 20.448 16.6973 20.448 14.5715 20.448C14.5715 22.631 14.5715 24.7683 14.5715 26.9056C16.743 26.9056 18.8803 26.9056 21.029 26.9056C21.029 24.7454 21.029 22.6082 21.029 20.448ZM22.7891 26.8942C24.9721 26.8942 27.1208 26.8942 29.2467 26.8942C29.2467 24.7226 29.2467 22.5739 29.2467 20.4366C27.0751 20.4366 24.9378 20.4366 22.7891 20.4366C22.7891 22.5967 22.7891 24.734 22.7891 26.8942ZM14.5715 28.6657C14.5715 30.8487 14.5715 32.9974 14.5715 35.1233C16.743 35.1233 18.8917 35.1233 21.029 35.1233C21.029 32.9517 21.029 30.8144 21.029 28.6657C18.8689 28.6657 16.7316 28.6657 14.5715 28.6657ZM22.7891 35.1233C24.9721 35.1233 27.1208 35.1233 29.2467 35.1233C29.2467 32.9517 29.2467 30.803 29.2467 28.6657C27.0751 28.6657 24.9378 28.6657 22.7891 28.6657C22.7891 30.8258 22.7891 32.9631 22.7891 35.1233Z" fill="#C7AD7D"/>
    <path d="M10.4226 30.7572C10.4226 31.2373 10.0112 31.6373 9.54256 31.6144C9.08539 31.603 8.70822 31.2144 8.70822 30.7458C8.70822 30.2658 9.09682 29.8886 9.58828 29.9C10.0569 29.9115 10.4226 30.2886 10.4226 30.7572Z" fill="#C7AD7D"/>
    <path d="M38.3559 30.3572C38.8245 30.3457 39.2245 30.7458 39.2245 31.2258C39.2245 31.683 38.8359 32.0601 38.3787 32.0716C37.9101 32.083 37.5101 31.683 37.5101 31.2029C37.5215 30.7458 37.8987 30.3686 38.3559 30.3572Z" fill="#C7AD7D"/>
</svg>
