<svg width="16" height="22" viewBox="0 0 16 22" fill="none" xmlns="http://www.w3.org/2000/svg">
    <path d="M7.83885 21.9943C7.66666 21.8568 7.47224 21.7365 7.31671 21.5819C5.27815 19.5889 3.47288 17.3953 2.03977 14.8926C1.19546 13.4207 0.54001 11.8686 0.190066 10.1848C-0.626471 6.23306 1.2399 2.37867 4.78933 0.706328C8.02771 -0.82283 12.0271 0.196608 14.2434 3.12893C15.9209 5.35107 16.3486 7.85385 15.732 10.5628C15.3266 12.344 14.5489 13.9648 13.6102 15.4996C12.2326 17.7504 10.5606 19.7549 8.69427 21.5876C8.53874 21.7423 8.34433 21.8625 8.17213 22C8.06104 21.9943 7.94994 21.9943 7.83885 21.9943ZM12.4437 8.38648C12.5548 5.90661 10.6273 3.78755 8.14991 3.66728C5.74474 3.54701 3.68396 5.53434 3.56175 8.08294C3.43955 10.58 5.38369 12.7162 7.87773 12.8251C10.2774 12.9396 12.3326 10.9408 12.4437 8.38648Z" fill="#C7AD7D"/>
</svg>
