<svg xmlns="http://www.w3.org/2000/svg" width="44" height="38" fill="#2b2f35"><path d="M0 .713C.198.395.455.172.851.309c.395.129.447.464.447.834v4.151h1.495l.017-.464.009-3.867c0-.43.241-.679.602-.687.387-.017.636.232.67.679a4.39 4.39 0 0 1 .009.344v3.523.49h1.504v-.945-3.051c0-.507.241-.791.645-.791.413 0 .645.275.645.782v7.949c0 .791-.266 1.444-.902 1.951-.455.361-.679.868-.67 1.47l.137 11.937c.06 2.217.344 4.417.524 6.634l.198 2.827c.034 1.624-1.229 2.87-2.802 2.836-1.53-.034-2.741-1.358-2.63-2.956l.473-5.775.352-8.018.034-7.305c0-.722-.206-1.298-.782-1.813-.378-.344-.55-.911-.808-1.375L0 .713zm2.879 12.435v.498l-.026 6.359a288.52 288.52 0 0 1-.352 8.19l-.464 5.646c-.026.361.069.773.241 1.1.284.559.954.773 1.555.602.653-.189 1.083-.756 1.057-1.495l-.198-2.741-.541-7.184c-.112-3.472-.086-6.952-.12-10.433v-.55l-1.152.009zm-1.59-6.506c0 .92-.043 1.796.026 2.664.017.301.266.602.455.868.215.309.619.559.696.894.198.782.713.808 1.341.773.223-.009.301-.103.404-.275.266-.447.524-.928.885-1.289.335-.335.516-.662.498-1.117-.009-.301 0-.602 0-.902V6.643H1.289zM44 34.659l-.112.447c-.301 1.229-1.212 1.968-2.346 1.916-1.186-.06-2.071-.851-2.157-2.14-.069-1.031.017-2.08.12-3.12.387-3.824.919-7.64.808-11.507-.009-.155 0-.309 0-.421-.421-.232-.825-.412-1.186-.662-.43-.301-.636-.748-.636-1.289l.026-10.046c.069-3.223 1.547-5.741 4.211-7.554.584-.387.791-.352 1.272.172v34.203zm-1.341-16.156V1.942c-.18.163-.301.258-.413.37-1.616 1.59-2.466 3.523-2.466 5.801v9.453c0 .602.232.902.851.937.662.026 1.341 0 2.028 0zm-1.04 1.289c-.009.112-.026.163-.017.223.12 4.28-.473 8.508-.911 12.753-.077.756-.017 1.538.052 2.294.043.413.378.662.816.679.455.026.825-.181.963-.636.12-.387.18-.808.18-1.22l-.017-13.612v-.481H41.62zm-7.201-1.264c0 6.626-5.371 12.014-12.014 12.04-6.634.026-12.074-5.388-12.074-12.031 0-6.634 5.431-12.057 12.066-12.048 6.626.009 12.023 5.414 12.023 12.04zm-1.289-.017c-.026-5.947-4.864-10.759-10.794-10.734-5.913.026-10.734 4.881-10.716 10.777.017 5.938 4.881 10.768 10.802 10.725 5.947-.043 10.742-4.864 10.708-10.768zM22.181 33.43c-6.961-.069-13.02-5.01-14.395-11.997-.894-4.546.18-8.654 3.034-12.298.309-.387.688-.464.997-.206.301.249.309.627 0 1.023-1.556 1.942-2.552 4.134-2.888 6.6-.61 4.512.679 8.43 3.902 11.636 4.916 4.89 12.555 5.285 18.012.997.077-.06.155-.129.241-.189.318-.215.67-.181.894.086.241.284.232.662-.095.911-.636.481-1.28.971-1.968 1.375-2.329 1.392-4.864 2.045-7.734 2.063zm.18-29.821c7.348.026 13.604 5.337 14.73 12.633.662 4.288-.421 8.173-3.094 11.601-.12.155-.301.344-.455.352-.224.009-.516-.077-.67-.232-.241-.241-.137-.541.043-.816.567-.859 1.203-1.684 1.65-2.604C38.69 16.19 33.379 6.247 24.132 5.044c-3.755-.49-7.15.481-10.158 2.784-.077.06-.155.129-.241.18-.344.232-.696.198-.919-.077-.232-.284-.181-.679.146-.945a14.79 14.79 0 0 1 7.769-3.257c.55-.06 1.091-.077 1.633-.12z"/></svg>