<svg xmlns="http://www.w3.org/2000/svg" viewBox="0 0 31 40" fill="#2b2f35"><path d="M.01 9.767c0 .719.41.829.659.829a.61.61 0 0 0 .449-.17c.14-.14.21-.36.21-.649v-.999V7.2c0-.459.26-.779.629-.799l2.018-.01h.759v.16.509c.01 1.279.899 2.207 2.108 2.207S8.94 8.338 8.95 7.06v-.52-.13h4.015v.15.489c.01 1.278.899 2.207 2.108 2.217h.01c1.189 0 2.098-.939 2.108-2.197V6.54v-.13h4.015v.16.519c.02 1.239.919 2.178 2.098 2.187h.02c1.189 0 2.098-.939 2.108-2.187V6.56 6.4h2.347c.839 0 1.059.22 1.059 1.059v7.581 15.152.1c0 .11-.01.22.02.33.07.33.29.519.619.529h.03c.33 0 .549-.18.639-.519.02-.1.02-.19.02-.29v-.07V7.31c0-.16 0-.33-.03-.489-.18-1.029-1.019-1.728-2.068-1.738-.619-.01-1.229 0-1.868 0h-.759v-.609-1.568c-.01-.759-.3-1.348-.889-1.748-.17-.12-.37-.21-.559-.29l-.25-.11-.01-.04h-.799l-.02.01-.25.11c-.19.08-.39.17-.559.29-.579.4-.879.989-.879 1.748v1.558.599H17.21V3.324c0-1.518-.33-2.028-1.698-2.597l-.02-.01h-.799l-.02.01-.25.11c-.19.08-.389.17-.559.29-.579.4-.879.989-.889 1.748v1.558.599H8.97V3.324c0-1.518-.33-2.028-1.698-2.597l-.02-.01h-.789l-.02.01c-1.368.569-1.698 1.079-1.698 2.597v1.728h-.739-1.818C.889 5.062.02 5.931.01 7.22v2.377.17zM7.641 7.02c0 .31-.09.549-.25.719a.7.7 0 0 1-.539.2c-.489 0-.779-.35-.779-.929V5.612v-.619-.609-1.408c0-.28.08-.519.23-.679a.71.71 0 0 1 .559-.24h.01c.469 0 .779.37.779.939l-.01 4.025zm8.24 0c0 .31-.09.549-.25.719-.13.13-.32.2-.539.2-.489 0-.779-.35-.779-.929V5.602v-.609-.609-1.408c0-.559.31-.929.789-.929h.01c.479 0 .779.37.789.939l-.02 4.035zm6.662-2.657V2.955c0-.3.1-.549.27-.709a.75.75 0 0 1 .519-.2h.02c.47.01.769.37.769.909V7.03c0 .549-.3.899-.769.909-.22.01-.41-.07-.549-.2-.17-.16-.25-.41-.26-.709V5.601v-.619-.619zm7.632 28.976v-.09c0-.499-.24-.799-.649-.809-.18 0-.34.05-.45.17-.15.14-.22.37-.22.649v2.397 1.239c0 .829-.23 1.059-1.069 1.059H2.398c-.839 0-1.069-.23-1.069-1.059V12.933v-.1l-.01-.28c-.03-.37-.31-.639-.659-.639s-.619.27-.659.639a1.85 1.85 0 0 1 .01.24v.09 24.042c0 1.518.829 2.347 2.337 2.347h8.91 7.511 3.406 5.823c1.279 0 2.167-.889 2.177-2.167v-3.766zM25.71 22.072c-.369-.37-.909-.569-1.518-.569H12.705a3.47 3.47 0 0 0-.579.05 1.85 1.85 0 0 0-1.428 2.107c.17.959.909 1.558 1.928 1.558h4.055 1.748.5 1.708 1.109.979l1.688-.01a1.8 1.8 0 0 0 1.798-1.828c.01-.519-.17-.979-.5-1.308zm-.819 1.319c-.02.27-.16.43-.419.479-.11.02-.23.02-.35.02h-.08-4.445H17.3h-4.465-.06c-.12 0-.23 0-.34-.01a.48.48 0 0 1-.45-.489.46.46 0 0 1 .39-.529c.12-.03.26-.03.38-.03h11.347c.14 0 .29 0 .41.04.27.07.39.25.38.519zm-4.685 5.543h-1.738-.969-2.507-.739c-.619 0-1.259-.01-1.888.02-.509.02-.979.27-1.299.679-.33.419-.46.959-.36 1.488.19.959.929 1.538 1.988 1.538h4.774 6.712a3.47 3.47 0 0 0 .579-.05c.799-.15 1.418-.889 1.458-1.708.02-.539-.15-1.029-.489-1.378-.35-.369-.869-.579-1.448-.579l-4.075-.01zm-7.451 2.397h-.13c-.39-.02-.629-.23-.629-.539 0-.33.24-.529.629-.529h2.707 1.548 1.878 5.324.07c.13 0 .27 0 .38.03a.47.47 0 0 1 .35.499c0 .26-.12.419-.36.489-.14.04-.29.04-.45.04h-9.449-1.828l-.04.01zM26.18 15.52c-.2-.869-.929-1.448-1.828-1.458a209.57 209.57 0 0 0-3.546 0h-1.438-1.858-4.874c-.929 0-1.678.539-1.898 1.368-.15.569-.04 1.169.31 1.628a1.84 1.84 0 0 0 1.458.719l2.417.01h1.748 1.648.1 1.448l4.355-.01c.35 0 .699-.07.979-.2.759-.35 1.169-1.219.979-2.058zm-1.299.469a.49.49 0 0 1-.45.459c-.08.01-.17.01-.27.01h-.09-4.655H17.3h-4.485-.1c-.1 0-.2 0-.29-.01a.49.49 0 0 1-.429-.479.47.47 0 0 1 .32-.519 1.37 1.37 0 0 1 .44-.06h5.913 5.454c.14 0 .29 0 .41.04.27.09.39.28.35.559zM6.163 17.528h.04c.21 0 .43-.13.659-.41l2.327-2.797.569-.689.13-.15.35-.44c.22-.31.19-.669-.09-.909-.27-.23-.639-.2-.909.06-.06.05-.1.11-.15.17-.02.02-.03.04-.05.06L6.303 15.71l-.12-.19-.39-.639c-.26-.419-.629-.539-.979-.34a.61.61 0 0 0-.29.38c-.05.19 0 .41.14.639l.879 1.438c.19.35.4.509.619.529zm-1.528 5.453l.839 1.368.06.1c.2.32.4.479.629.489h.04c.21 0 .42-.13.639-.39l2.148-2.577.749-.899.14-.17.34-.419c.24-.32.2-.699-.09-.939-.28-.23-.659-.18-.939.11a1.74 1.74 0 0 0-.12.14c-.02.02-.04.05-.06.07L6.283 23.14c-.04-.07-.08-.14-.13-.2l-.42-.659c-.25-.38-.619-.489-.959-.28-.32.2-.38.579-.14.979zm-.03 7.402l1.039 1.688c.14.21.32.33.529.34h.03c.19 0 .38-.1.539-.28l3.446-4.135c.14-.17.2-.35.18-.529a.68.68 0 0 0-.25-.439c-.29-.24-.639-.19-.929.11l-.2.23a.57.57 0 0 1-.07.08l-2.627 3.156c-.05-.07-.09-.15-.14-.22l-.449-.709c-.23-.34-.589-.43-.919-.22-.31.2-.39.579-.18.929z"/></svg>