<svg width="44" height="44" viewBox="0 0 44 44" fill="none" xmlns="http://www.w3.org/2000/svg">
    <path d="M27.2413 44.001C26.6913 43.8979 26.1413 43.8205 25.5999 43.7002C24.0014 43.3307 22.6007 42.5143 21.1999 41.7237C12.2538 36.6877 5.61082 29.469 1.03035 20.3166C0.523318 19.294 0.20535 18.2198 0.0764434 17.0854C0.0678497 17.008 0.024881 16.9221 -0.000900269 16.8448C-0.000900269 16.2174 -0.000900269 15.5815 -0.000900269 14.9541C0.0936309 14.4643 0.170975 13.9744 0.291287 13.4846C0.729568 11.7143 1.58035 10.1588 2.84363 8.83539C3.45379 8.19086 4.08972 7.56351 4.72566 6.94476C5.78269 5.91351 7.24363 5.91351 8.29206 6.96195C10.5608 9.21351 12.8124 11.4737 15.0639 13.7338C16.1038 14.7823 16.0952 16.2432 15.0639 17.3002C14.1788 18.2026 13.285 19.0877 12.3913 19.9729C11.5233 20.8408 11.4374 21.5627 12.1163 22.5682C12.5116 23.1612 12.9327 23.7455 13.3452 24.3299C13.7061 24.8369 13.6632 25.3526 13.2335 25.6533C12.8296 25.9369 12.3139 25.8252 11.9702 25.3526C11.4803 24.6651 10.9819 23.9862 10.5264 23.2729C9.62409 21.8807 9.80456 20.1791 10.9733 18.976C11.8842 18.0393 12.8124 17.1284 13.7319 16.2088C14.2561 15.6846 14.2561 15.3494 13.7319 14.8252C11.5577 12.6424 9.38347 10.4682 7.20066 8.29398C6.67644 7.76976 6.33269 7.76117 5.81707 8.28539C5.01785 9.11039 4.13269 9.86664 3.46238 10.7776C1.44285 13.5448 1.10769 16.544 2.62879 19.6377C5.37019 25.2065 9.04831 30.0877 13.6717 34.2385C16.9116 37.1432 20.478 39.558 24.4053 41.4315C27.5506 42.944 31.2717 42.3424 33.8241 39.9619C34.4858 39.3432 35.1131 38.6987 35.7405 38.0541C36.153 37.633 36.153 37.2377 35.7319 36.8166C33.5061 34.5822 31.2803 32.3565 29.046 30.1307C28.6163 29.701 28.2296 29.7182 27.7827 30.1565C26.8803 31.0588 25.9866 31.9612 25.0756 32.8549C23.7436 34.1697 22.0592 34.3502 20.5124 33.3018C19.5499 32.6487 18.6303 31.9526 17.7022 31.2565C17.2038 30.8869 17.1092 30.3627 17.4186 29.9588C17.7366 29.5377 18.235 29.5205 18.7421 29.8987C19.653 30.569 20.5553 31.2393 21.4835 31.8924C22.2999 32.4596 23.0991 32.3822 23.8124 31.6862C24.7405 30.7752 25.6514 29.8471 26.5796 28.9276C27.6967 27.819 29.1491 27.819 30.2749 28.9362C32.5006 31.1533 34.7178 33.3705 36.9264 35.5877C38.0436 36.7049 38.0436 38.1572 36.935 39.283C36.2389 39.9877 35.5514 40.701 34.821 41.3627C33.1881 42.8322 31.2631 43.6744 29.0717 43.9065C28.9772 43.9151 28.8827 43.9494 28.7796 43.9752C28.2725 44.001 27.7569 44.001 27.2413 44.001Z" fill="#C7AD7D"/>
    <path d="M26.296 0.000976563C27.0608 0.112695 27.817 0.207226 28.5819 0.336133C35.792 1.62519 41.9022 7.45175 43.4834 14.5846C43.6897 15.5213 43.7842 16.4752 43.9303 17.4205C43.9475 17.515 43.9819 17.6096 43.9991 17.7041C43.9991 18.2197 43.9991 18.7353 43.9991 19.251C43.9647 19.2939 43.9217 19.3283 43.8873 19.3713C43.6467 19.7408 43.3116 19.8869 42.8905 19.7666C42.4694 19.6463 42.3147 19.3197 42.2717 18.89C42.1256 17.5408 42.0998 16.1572 41.7475 14.8596C39.9342 8.13925 35.603 3.88535 28.8483 2.1666C27.7225 1.88301 26.528 1.84004 25.3678 1.73691C24.8866 1.69394 24.4397 1.66816 24.242 1.14394C24.0874 0.740039 24.242 0.404883 24.7491 0.000976562C25.2647 0.000976563 25.7803 0.000976563 26.296 0.000976563Z" fill="#C7AD7D"/>
    <path d="M38.8342 18.6321C38.8256 18.761 38.8342 18.9673 38.7913 19.1564C38.6881 19.5946 38.3014 19.8525 37.8545 19.7923C37.4163 19.7321 37.167 19.4142 37.1069 18.9329C36.9522 17.79 36.892 16.6126 36.5827 15.5126C35.285 10.829 30.9709 7.33136 26.1241 6.94465C25.7717 6.91886 25.4108 6.90168 25.0499 6.8759C24.5256 6.84152 24.1733 6.48058 24.1905 5.99933C24.2077 5.51808 24.5772 5.12277 25.1014 5.17433C26.2616 5.29465 27.4647 5.32902 28.5733 5.65558C34.1506 7.29699 37.4936 11.0267 38.6452 16.7243C38.6967 16.965 38.7225 17.2056 38.7397 17.4462C38.7827 17.8157 38.8084 18.1939 38.8342 18.6321Z" fill="#C7AD7D"/>
    <path d="M33.7038 18.6838C33.6522 18.9159 33.635 19.1651 33.5319 19.3713C33.3514 19.7323 33.0163 19.8526 32.6295 19.7752C32.2342 19.6979 31.9764 19.3971 31.9592 18.9502C31.9163 17.9706 31.7702 17.0081 31.3319 16.1229C30.103 13.6049 28.0835 12.2471 25.2905 12.0581C25.2217 12.0495 25.1444 12.0581 25.0756 12.0495C24.5428 12.0151 24.1905 11.6713 24.1991 11.1901C24.2077 10.7088 24.5686 10.3135 25.0928 10.3479C25.8061 10.3909 26.528 10.451 27.2069 10.6315C30.9194 11.5854 33.4889 14.8167 33.7038 18.6838Z" fill="#C7AD7D"/>
    <path d="M28.4788 18.8556C28.4874 19.3884 28.178 19.7665 27.6967 19.8009C27.2155 19.8353 26.8632 19.5259 26.7772 18.9845C26.6053 17.8071 26.1928 17.4032 24.9983 17.2142C24.4655 17.1368 24.1561 16.7673 24.1991 16.2861C24.2421 15.8048 24.6202 15.504 25.1616 15.5212C26.9663 15.5642 28.453 17.0595 28.4788 18.8556Z" fill="#C7AD7D"/>
    <path d="M16.0952 27.8963C16.0952 28.3689 15.7257 28.747 15.2616 28.7642C14.7889 28.7728 14.385 28.3689 14.3936 27.8877C14.4022 27.4236 14.7803 27.0541 15.253 27.0541C15.7257 27.0541 16.0952 27.4236 16.0952 27.8963Z" fill="#C7AD7D"/>
</svg>
