<svg width="17" height="17" viewBox="0 0 17 17" fill="none" xmlns="http://www.w3.org/2000/svg">
    <path d="M12.1495 16.0165C11.3668 15.9453 10.6875 15.7673 10.0308 15.527C8.46084 14.953 7.06185 14.0809 5.77083 13.0352C3.958 11.5713 2.44655 9.84925 1.30397 7.82466C0.710191 6.77455 0.264855 5.67103 0.057931 4.47853C-0.00504583 4.12256 0.0219442 3.80218 0.219871 3.49071C0.9576 2.3249 1.81678 1.25254 2.88739 0.358156C2.95037 0.304761 3.02234 0.260264 3.08982 0.211318C3.57564 -0.149103 4.00748 -0.0111643 4.38984 0.344807C4.54278 0.487196 4.65974 0.674081 4.77669 0.847618C5.37497 1.7153 5.96426 2.59188 6.41859 3.5441C6.52655 3.77549 6.61202 4.01577 6.69299 4.2605C6.78745 4.54527 6.73348 4.8256 6.53105 5.03919C6.26565 5.32396 5.96876 5.58204 5.67636 5.84012C5.3075 6.1605 5.2985 6.15605 5.48743 6.59656C6.33312 8.54996 7.7546 9.916 9.76086 10.6858C9.9228 10.7481 10.0263 10.7392 10.1432 10.5968C10.3996 10.2809 10.674 9.97829 10.9574 9.68462C11.2588 9.37759 11.6232 9.28415 12.037 9.43544C12.199 9.49773 12.3654 9.54668 12.5228 9.62232C13.6654 10.1563 14.7135 10.846 15.7347 11.5713C16.0001 11.7626 16.153 12.0385 16.189 12.3589C16.2025 12.479 16.171 12.6169 16.1125 12.7237C16.0091 12.9151 15.8921 13.1019 15.7482 13.2621C14.8215 14.2989 13.7509 15.1666 12.5408 15.8607C12.4014 15.9408 12.2394 15.9809 12.1495 16.0165Z" fill="#C7AD7D"/>
    <path d="M8.83411 0.527155C12.0054 0.585 14.8034 2.85877 15.4872 5.96017C15.5906 6.43629 15.6176 6.92575 15.6581 7.41076C15.6851 7.74893 15.4422 7.99366 15.1318 7.99811C14.8214 8.00256 14.592 7.76228 14.583 7.42411C14.5245 4.84331 12.9681 2.72973 10.503 1.88875C9.90922 1.68406 9.29294 1.59952 8.66767 1.59062C8.26282 1.58617 8.00192 1.22575 8.14137 0.869778C8.22234 0.656194 8.38428 0.544953 8.61369 0.522705C8.69016 0.522705 8.76214 0.527155 8.83411 0.527155Z" fill="#C7AD7D"/>
    <path d="M8.7802 3.19694C10.8944 3.23699 12.7297 4.91895 12.9367 7.00584C12.9502 7.13933 12.9637 7.27282 12.9637 7.40631C12.9682 7.75783 12.7477 8.00256 12.4284 8.00256C12.118 8.00256 11.8931 7.76673 11.8886 7.4241C11.8571 6.10701 11.0609 4.9501 9.82382 4.49179C9.48644 4.3672 9.11758 4.29155 8.76221 4.2782C8.33936 4.26486 8.10995 3.98898 8.11444 3.72645C8.11444 3.38827 8.36635 3.18804 8.7802 3.19694Z" fill="#C7AD7D"/>
</svg>
