<svg xmlns="http://www.w3.org/2000/svg" width="37" height="38" fill="none"><path d="M3.194 16.298C3.114 12.614 4.288 9.41 6.9 6.763c2.612-2.654 5.851-3.952 9.689-4.044v-.6-.621c-.219 0-.416.007-.606 0-.401-.021-.671-.275-.664-.621.007-.339.263-.6.642-.6h5.1a.6.6 0 0 1 .627.621c-.007.332-.263.586-.642.607-.197.014-.394 0-.606 0v1.221c3.772.078 7.034 1.376 9.653 4.03 2.612 2.647 3.801 5.844 3.721 9.556h1.824c1.343 0 1.364.021 1.357 1.306 0 .268.015.543-.022.805-.139.924-.927 1.574-1.912 1.581h-4.144-.474c.219.656.029 1.214-.241 1.771l-1.992 4.241a1.55 1.55 0 0 0-.139.628l-.007 3.465c-.007.748-.226 1.447-.773 1.969-.452.423-.584.875-.46 1.482.511.085.627.452.613.925-.022.678 0 1.362-.007 2.039 0 .529-.233.748-.781.748h-7.369c-.547 0-.773-.219-.781-.748v-2.159c0-.543.16-.72.795-.819l-.328-.289L6.178 22.282c-.941-.805-1.021-1.066-.912-2.294H1.924c-.934-.007-1.722-.6-1.861-1.489-.088-.55-.073-1.129-.029-1.687.029-.374.336-.522.715-.522l2.444.007zm1.262-.028H32.51c0-.452.036-.875-.007-1.299-.073-.663-.153-1.327-.306-1.976-1.116-4.827-5.516-8.568-10.609-8.956-1.649-.127-3.32-.071-4.976-.078-2.415 0-4.655.614-6.654 1.927-3.765 2.477-5.53 5.97-5.501 10.381zm21.057 17.298c0-.205.022-.36 0-.508-.102-.677.124-1.207.679-1.651.445-.353.605-.861.598-1.411l-.007-3.317c-.007-.452.095-.854.292-1.256l2.079-4.411c.284-.614.015-1.002-.686-1.009-.212 0-.43.014-.635-.007-.474-.049-.759.155-.978.558l-3.188 5.681c-.175.318-.401.515-.773.593-.7.148-1.386.353-2.087.48-.277.049-.613.028-.875-.071l-5.881-2.251c-.328-.127-.547-.317-.708-.628L11.3 20.398c-.212-.409-.817-.558-1.284-.339-.379.176-.452.501-.226.988l2.109 4.482c.073.148.168.296.299.395l8.909 7.474c.095.078.226.155.343.155l4.064.014zm.19-13.557h-13.14c.022.071.029.12.051.162l1.802 3.472c.066.127.241.233.387.289 1.335.529 2.714.974 4.013 1.581 1.145.536 2.247.67 3.415.183.175-.07.372-.198.467-.353l2.43-4.284c.175-.332.365-.67.576-1.052zM1.312 17.54c-.095 1.066.051 1.221 1.094 1.221h32.271c.146 0 .292.007.438-.007.35-.035.562-.233.598-.565.022-.212.007-.423.007-.649H1.312zM26.14 34.83H19.8v1.186h6.34V34.83zM9.469 23.539c.015-.007.029-.021.051-.028-.044-.106-.073-.205-.124-.311l-1.218-2.59c-.263-.558-.46-.692-1.08-.593-.212.035-.467.219-.547.402a.67.67 0 0 0 .124.614c.912.854 1.861 1.673 2.794 2.505zm8.42-22.026v1.186h1.226V1.513h-1.226z" fill="#2b2f35"/></svg>