<svg width="44" height="44" viewBox="0 0 44 44" fill="none" xmlns="http://www.w3.org/2000/svg">
    <path d="M-0.000915527 20.4818C0.105312 19.6532 0.190293 18.8246 0.339011 18.0173C1.42253 11.9836 4.51374 7.21401 9.5489 3.76163C13.8511 0.808513 18.6632 -0.381231 23.8471 0.107414C27.82 0.489831 31.4317 1.87078 34.6504 4.23965C34.9797 4.47335 35.1603 4.78141 35.0753 5.18507C35.0009 5.525 34.7672 5.80119 34.4167 5.81181C34.1405 5.82243 33.8218 5.72683 33.5987 5.56749C32.2603 4.62207 30.8474 3.82536 29.339 3.21987C27.3207 2.40192 25.2174 1.9239 23.0397 1.79642C20.4372 1.63708 17.8877 1.93452 15.4233 2.77371C10.2925 4.50522 6.42582 7.77701 3.91886 12.5997C2.29359 15.7122 1.59249 19.0477 1.71996 22.5532C2.03865 31.2957 8.07235 38.9759 16.5811 41.0898C24.665 43.0975 31.6016 40.8774 37.1042 34.61C39.7705 31.5719 41.2152 27.9177 41.6401 23.8704C42.0544 20.0462 41.417 16.392 39.7493 12.9396C39.2819 11.973 38.6657 11.0807 38.1134 10.1671C38.039 10.0503 37.9434 9.93342 37.869 9.81657C37.5716 9.33855 37.6353 8.84991 38.0284 8.57371C38.4321 8.29752 38.9101 8.38251 39.25 8.83928C40.4291 10.4327 41.3745 12.1429 42.065 14.0019C42.798 15.9777 43.2654 18.0067 43.4247 20.11C43.4353 20.2375 43.4672 20.3543 43.4991 20.4818C43.4991 21.3635 43.4991 22.2345 43.4991 23.1162C43.4778 23.2437 43.4353 23.3605 43.4247 23.488C43.0848 27.6415 41.6932 31.4019 39.1969 34.7268C35.7339 39.3158 31.1661 42.1627 25.4936 43.1825C24.6756 43.3312 23.8471 43.4056 23.0185 43.5224C22.1687 43.5224 21.3189 43.5224 20.469 43.5224C19.8954 43.4587 19.3218 43.395 18.7482 43.31C14.4566 42.7045 10.6643 40.9942 7.42436 38.1261C3.61081 34.7375 1.21007 30.5415 0.328388 25.4957C0.190293 24.6777 0.105312 23.8492 -0.000915527 23.0312C-0.000915527 22.1814 -0.000915527 21.3316 -0.000915527 20.4818Z" fill="#C7AD7D"/>
    <path d="M21.7756 3.91032C31.591 3.92094 39.6112 11.9623 39.6005 21.7671C39.5899 31.5931 31.5273 39.6345 21.7119 39.6026C11.8965 39.5708 3.87637 31.5294 3.90824 21.7246C3.92948 11.9092 11.9709 3.88908 21.7756 3.91032ZM21.7331 5.60995C12.8526 5.6312 5.59725 12.8971 5.60787 21.7565C5.61849 30.6264 12.8738 37.8924 21.7438 37.8924C30.6244 37.903 37.9328 30.5733 37.8903 21.7246C37.8584 12.8334 30.5925 5.57809 21.7331 5.60995Z" fill="#C7AD7D"/>
    <path d="M37.391 6.95903C37.4016 7.40518 37.0192 7.80885 36.5625 7.80885C36.1163 7.81947 35.7126 7.44768 35.6914 6.9909C35.6701 6.53412 36.0419 6.13046 36.4881 6.10921C36.9449 6.09859 37.3698 6.50225 37.391 6.95903Z" fill="#C7AD7D"/>
    <path d="M20.9046 26.6536C20.9046 26.0269 20.8939 25.4108 20.9152 24.784C20.9258 24.5185 20.8408 24.4016 20.5965 24.2848C19.258 23.6899 18.6313 22.1815 19.1412 20.8111C19.2474 20.535 19.1943 20.3862 18.9925 20.1844C16.8148 18.0174 14.6478 15.8397 12.4701 13.6727C12.3427 13.5452 12.2152 13.4071 12.109 13.2584C11.8753 12.9185 11.9284 12.4829 12.2046 12.2067C12.4808 11.9306 12.9269 11.8774 13.2562 12.1005C13.4049 12.2067 13.543 12.3342 13.6705 12.4617C15.8482 14.6287 18.0152 16.8064 20.1822 18.984C20.3734 19.1752 20.5222 19.239 20.809 19.1434C22.2218 18.6122 23.7939 19.324 24.3463 20.7049C24.8987 22.0859 24.2932 23.658 22.9335 24.2848C22.6679 24.4122 22.5936 24.5397 22.5936 24.8159C22.6042 26.0906 22.6042 27.3654 22.5936 28.6401C22.5936 29.15 22.3599 29.4899 21.9668 29.5855C21.3932 29.7236 20.9152 29.3518 20.9046 28.7038C20.8939 28.0133 20.9046 27.3335 20.9046 26.6536ZM21.765 20.6518C21.1808 20.6518 20.6496 21.1723 20.6602 21.7566C20.6602 22.3196 21.1701 22.8401 21.7331 22.8507C22.3174 22.8613 22.8485 22.3514 22.8591 21.7672C22.8698 21.1829 22.3493 20.6518 21.765 20.6518Z" fill="#C7AD7D"/>
    <path d="M10.2394 27.5991C10.7386 27.7053 10.9405 28.0028 11.1423 28.3215C12.1196 29.883 13.3625 31.179 14.9134 32.1775C15.4764 32.5493 16.0925 32.8361 16.698 33.1548C17.006 33.3248 17.3354 33.516 17.3141 33.8984C17.3035 34.164 17.176 34.472 16.9954 34.6738C16.7405 34.95 16.3581 34.9075 16.05 34.7376C15.1364 34.2277 14.2016 33.7497 13.3518 33.1548C11.8222 32.0819 10.6006 30.6797 9.62326 29.0863C9.42143 28.757 9.32583 28.4064 9.58077 28.0984C9.72949 27.8753 10.0163 27.7585 10.2394 27.5991Z" fill="#C7AD7D"/>
    <path d="M22.5936 8.41428C22.5936 8.65861 22.6148 8.89231 22.5936 9.13663C22.5405 9.54029 22.2218 9.83773 21.8288 9.85897C21.4251 9.88022 21.032 9.65714 20.9896 9.24286C20.9258 8.7011 20.9364 8.14872 20.9896 7.60696C21.032 7.2033 21.4463 6.94835 21.8288 6.98022C22.2218 7.01209 22.5511 7.2989 22.6042 7.70256C22.6255 7.93626 22.5936 8.18059 22.5936 8.41428Z" fill="#C7AD7D"/>
    <path d="M8.45476 20.9068C8.66722 20.9068 8.87967 20.8855 9.09213 20.9068C9.52766 20.9493 9.83572 21.268 9.85696 21.6716C9.88883 22.0965 9.64451 22.4789 9.20898 22.5321C8.67784 22.5852 8.13608 22.5852 7.61557 22.5321C7.21191 22.4896 6.95696 22.0859 6.97821 21.7035C6.99945 21.2998 7.31813 20.9599 7.73242 20.9174C7.96612 20.8855 8.21044 20.9068 8.45476 20.9068Z" fill="#C7AD7D"/>
    <path d="M35.0646 22.5957C34.8416 22.5957 34.6079 22.6169 34.3848 22.5957C33.9705 22.5532 33.6837 22.2345 33.6412 21.8415C33.6093 21.4166 33.843 21.0235 34.2786 20.9704C34.8097 20.9067 35.3515 20.9173 35.872 20.9704C36.2756 21.0129 36.5412 21.406 36.52 21.7884C36.4987 22.192 36.1907 22.5426 35.7764 22.5851C35.5533 22.6169 35.309 22.5957 35.0646 22.5957Z" fill="#C7AD7D"/>
    <path d="M20.9046 35.0987C20.9046 34.8756 20.8833 34.6419 20.9046 34.4189C20.9471 33.9833 21.2551 33.6753 21.6694 33.654C22.0943 33.6222 22.4767 33.8665 22.5299 34.302C22.583 34.8331 22.583 35.3749 22.5299 35.8954C22.4874 36.2991 22.0837 36.554 21.7013 36.5328C21.2976 36.5115 20.9577 36.1928 20.9152 35.7786C20.8833 35.5555 20.9046 35.3218 20.9046 35.0987Z" fill="#C7AD7D"/>
    <path d="M9.85697 25.7613C9.84634 26.2181 9.46392 26.6005 9.01777 26.5899C8.55037 26.5899 8.16795 26.1756 8.1892 25.6976C8.21044 25.2514 8.61411 24.8796 9.06026 24.8902C9.50642 24.9115 9.86759 25.2939 9.85697 25.7613Z" fill="#C7AD7D"/>
</svg>
