<svg width="292" height="94" viewBox="0 0 292 94" fill="none" xmlns="http://www.w3.org/2000/svg">
    <path d="M41.7438 49.7291C41.7438 45.6611 42.325 41.9252 43.4457 38.4798C44.608 35.0345 46.2684 32.0458 48.51 29.5136C50.7515 26.9815 53.4912 25.0306 56.7705 23.6192C60.0498 22.2079 63.8272 21.5022 68.0612 21.5022C72.3368 21.5022 76.0727 22.2079 79.352 23.6192C82.6313 25.0306 85.371 26.9815 87.571 29.5136C89.771 32.0458 91.4729 35.0345 92.5937 38.4798C93.756 41.9252 94.2956 45.7026 94.2956 49.7291C94.2956 53.7556 93.7145 57.533 92.5937 60.9783C91.4314 64.4236 89.771 67.4124 87.571 69.9445C85.371 72.4766 82.6313 74.4276 79.352 75.8389C76.0727 77.2503 72.2953 77.9559 68.0612 77.9559C63.7857 77.9559 60.0498 77.2503 56.7705 75.8389C53.4912 74.4276 50.7515 72.4766 48.51 69.9445C46.2684 67.4124 44.608 64.4236 43.4457 60.9783C42.325 57.533 41.7438 53.7971 41.7438 49.7291ZM99.0278 85.7183C98.0731 86.7146 97.0768 87.6693 96.0391 88.5825C94.9598 89.4958 93.839 90.326 92.6767 91.0316C91.5145 91.7788 90.2692 92.3184 88.9823 92.7335C87.6955 93.1486 86.3257 93.3562 84.9144 93.3562C82.5068 93.3562 80.1407 92.9411 77.6916 92.0694C75.284 91.1977 72.7519 90.2429 70.1367 89.1222C67.5216 88.0014 64.7404 86.9221 61.8762 85.8844C59.012 84.8466 55.8573 84.0994 52.495 83.6843L54.4459 80.239C56.9365 79.7824 59.3856 79.6579 61.7932 79.9069C64.2008 80.156 66.6084 80.5296 68.9745 81.0692C71.3405 81.6088 73.7066 82.2315 76.0727 82.8956C78.4388 83.5598 80.8048 84.0994 83.2124 84.5145C85.62 84.9296 88.0276 85.1372 90.5182 85.0957C93.0088 85.0542 95.5824 84.5976 98.2391 83.7259L99.0278 85.7183ZM54.9856 49.7291C54.9856 53.0499 55.2346 56.1216 55.7743 58.9443C56.3139 61.767 57.1026 64.2161 58.2233 66.2501C59.3441 68.2841 60.7555 69.903 62.4989 71.0653C64.2423 72.2276 66.3178 72.8087 68.7669 72.8087C71.0085 72.8087 72.8764 72.2276 74.4538 71.0653C76.0312 69.903 77.2765 68.2841 78.2727 66.2501C79.269 64.2161 79.9746 61.767 80.4313 58.9443C80.8879 56.1216 81.0954 53.0499 81.0954 49.7291C81.0954 46.4083 80.8464 43.3365 80.3482 40.5138C79.8501 37.6911 79.0614 35.242 78.0237 33.208C76.9444 31.1741 75.5746 29.5552 73.8312 28.3929C72.0877 27.2306 69.9707 26.6495 67.4801 26.6495C65.0725 26.6495 63.08 27.2306 61.4611 28.3929C59.8422 29.5552 58.5554 31.1741 57.6007 33.208C56.646 35.242 55.9818 37.6911 55.5667 40.5138C55.1931 43.3365 54.9856 46.4083 54.9856 49.7291Z" fill="#2B2F35"/>
    <path d="M102.971 61.5596C102.971 58.2803 103.054 55.25 103.22 52.4273C103.386 49.6046 103.469 46.6574 103.469 43.5442L98.3221 42.9215V39.9743C99.1523 39.6422 100.19 39.3516 101.394 39.0196C102.598 38.6875 103.884 38.4384 105.171 38.1894C106.458 37.9403 107.745 37.7328 108.949 37.5667C110.152 37.4007 111.19 37.2346 112.02 37.1516H114.677C114.677 41.0536 114.594 44.8725 114.428 48.6499C114.262 52.4273 114.179 56.1217 114.179 59.7331C114.179 64.0087 114.594 67.0389 115.466 68.9068C116.337 70.7748 117.915 71.7295 120.239 71.7295C121.858 71.7295 123.353 71.1069 124.723 69.9031C126.092 68.6993 127.213 66.7068 128.126 64.0087V43.5442L123.062 42.9215V39.9743C123.851 39.6422 124.806 39.3516 125.968 39.0196C127.13 38.6875 128.375 38.4384 129.621 38.1894C130.908 37.9403 132.153 37.7328 133.398 37.5667C134.643 37.4007 135.723 37.2346 136.677 37.1516H139.334V71.522L144.481 72.1446V74.8843C143.734 75.2164 142.862 75.507 141.742 75.839C140.662 76.1711 139.5 76.4617 138.296 76.7523C137.093 77.0428 135.93 77.2919 134.768 77.4579C133.606 77.624 132.568 77.79 131.613 77.873H128.957L128.417 68.6163H128.085C127.836 69.6955 127.338 70.8163 126.673 71.9371C126.009 73.0579 125.138 74.0541 124.058 74.9673C122.979 75.8806 121.734 76.6277 120.281 77.1674C118.828 77.7485 117.209 78.0391 115.466 78.0391C113.473 78.0391 111.73 77.79 110.194 77.2919C108.658 76.7938 107.33 75.9221 106.251 74.6768C105.171 73.4314 104.341 71.7295 103.76 69.654C103.262 67.454 102.971 64.7558 102.971 61.5596Z" fill="#2B2F35"/>
    <path d="M169.844 77.0013H148.342V74.0541C149.131 73.639 149.919 73.2654 150.749 73.0163C151.58 72.7257 152.493 72.4352 153.489 72.1861V43.5441L148.342 42.9215V39.9743C149.131 39.6422 150.085 39.3516 151.248 39.0195C152.41 38.6875 153.655 38.4384 154.942 38.1893C156.229 37.9403 157.516 37.7327 158.761 37.5667C160.006 37.4006 161.085 37.2346 162.04 37.1516H164.697V72.2276C165.735 72.4767 166.689 72.7673 167.52 73.0578C168.35 73.3484 169.138 73.6805 169.844 74.0956V77.0013ZM152.327 25.2797C152.327 23.4532 152.949 22.0419 154.195 21.0041C155.44 19.9664 157.017 19.4268 158.968 19.4268C160.919 19.4268 162.497 19.9664 163.742 21.0041C164.987 22.0419 165.61 23.4532 165.61 25.2797C165.61 27.0646 164.987 28.4345 163.742 29.4722C162.497 30.51 160.919 31.0496 158.968 31.0496C157.017 31.0496 155.44 30.5515 154.195 29.4722C152.908 28.4345 152.327 27.0231 152.327 25.2797Z" fill="#2B2F35"/>
    <path d="M221.026 77.0013H200.395V74.0541C201.06 73.6805 201.724 73.3484 202.388 73.0579C203.052 72.7673 203.799 72.4767 204.671 72.1446V53.7972C204.671 50.5179 204.214 47.9442 203.26 46.1178C202.305 44.2498 200.645 43.3366 198.278 43.3366C196.286 43.3366 194.584 43.9593 193.173 45.2461C191.761 46.5329 190.682 48.2348 189.935 50.4349V72.1446C190.765 72.3522 191.512 72.6013 192.135 72.8918C192.799 73.1824 193.463 73.556 194.21 74.0126V76.9598H173.58V74.0126C174.867 73.3484 176.61 72.7258 178.727 72.1446V43.5027L173.58 42.88V39.9328C174.244 39.6007 175.157 39.3101 176.237 39.0196C177.316 38.729 178.52 38.4799 179.765 38.1894C181.052 37.9403 182.339 37.6912 183.667 37.5252C184.995 37.3592 186.199 37.1931 187.278 37.1101H189.935V45.1216H190.018C191.097 42.9215 192.758 41.0536 194.916 39.4762C197.116 37.8988 199.731 37.1101 202.845 37.1101C204.879 37.1101 206.705 37.3592 208.282 37.8573C209.901 38.3554 211.271 39.2271 212.392 40.4724C213.513 41.7177 214.384 43.4196 214.966 45.4951C215.547 47.6122 215.879 50.2688 215.879 53.5066V72.1861C217.954 72.5597 219.656 73.1824 221.026 74.0541V77.0013Z" fill="#2B2F35"/>
    <path d="M222.603 39.9744C224.596 38.6876 226.671 37.7744 228.83 37.2348V30.9667C229.245 30.6346 230.283 30.2195 231.902 29.5969C233.521 29.0158 235.389 28.5176 237.381 28.144H240.038V38.0234H250.332V43.0877H240.038V63.1786C240.038 66.3749 240.453 68.6164 241.242 69.8617C242.03 71.107 243.4 71.7297 245.268 71.7297C246.223 71.7297 247.26 71.6466 248.423 71.5221C249.585 71.3976 250.664 71.1485 251.661 70.7749L252.2 73.3486C251.744 73.8052 251.038 74.3033 250.125 74.8429C249.211 75.3825 248.174 75.8392 247.011 76.3373C245.849 76.7939 244.562 77.209 243.192 77.4996C241.823 77.7901 240.37 77.9562 238.875 77.9562C235.513 77.9562 232.981 77.0845 231.321 75.2995C229.66 73.5561 228.83 70.6919 228.83 66.7484V43.0877H222.603V39.9744Z" fill="#2B2F35"/>
    <path d="M290.929 70.4427C290.514 71.3144 289.85 72.2277 288.937 73.1409C288.023 74.0541 286.903 74.8428 285.574 75.5485C284.246 76.2541 282.71 76.8353 280.967 77.2504C279.223 77.707 277.355 77.9146 275.321 77.9146C272.083 77.9146 269.261 77.4164 266.77 76.4617C264.28 75.507 262.204 74.1371 260.544 72.3522C258.883 70.5673 257.638 68.4087 256.766 65.9181C255.894 63.4275 255.479 60.6048 255.479 57.4916C255.479 50.85 257.223 45.7857 260.71 42.2989C264.196 38.812 269.012 37.0686 275.197 37.0686C277.853 37.0686 280.344 37.4422 282.627 38.1479C284.952 38.895 286.861 40.0573 288.397 41.7177C289.933 43.3781 291.012 45.5782 291.593 48.2763C292.174 50.9745 292.133 54.2953 291.469 58.1557H267.559C267.6 62.2652 268.68 65.5445 270.714 67.9936C272.748 70.4427 275.778 71.6465 279.804 71.6465C281.506 71.6465 283.291 71.3975 285.159 70.8578C286.986 70.3182 288.438 69.654 289.476 68.8238L290.929 70.4427ZM274.823 41.5517C273.785 41.5517 272.872 41.7177 272.083 42.0913C271.295 42.4649 270.589 43.1291 270.008 44.0838C269.427 45.0385 268.929 46.3254 268.597 47.9858C268.223 49.6047 267.974 51.6802 267.808 54.1708H280.261C280.635 50.1028 280.385 46.9895 279.555 44.831C278.725 42.631 277.148 41.5517 274.823 41.5517Z" fill="#2B2F35"/>
    <path d="M3.47151 43.0876V56.786H10.7358V59.3181H0.939392V43.0876H3.47151Z" fill="#2B2F35"/>
    <path d="M19.7435 45.6198V49.9368H26.2191V52.4689H19.7435V56.786H27.5474V59.3181H17.1699V43.0876H27.5474V45.6198H19.7435Z" fill="#2B2F35"/>
    <path d="M205.584 8.46801C205.584 9.87936 205.294 11.2077 204.671 12.453C204.007 13.6983 203.094 14.736 201.848 15.4832C200.603 16.2304 199.275 16.604 197.905 16.604H192.592V0.332031H197.905C199.316 0.332031 200.603 0.705622 201.848 1.4528C203.094 2.19999 204.048 3.19623 204.671 4.48304C205.294 5.68684 205.584 7.01516 205.584 8.46801ZM203.011 8.59254C203.011 7.43026 202.803 6.43402 202.43 5.60382C201.973 4.7321 201.35 4.02643 200.52 3.4868C199.69 2.94717 198.777 2.69811 197.78 2.6566H195.165V14.1134L197.78 14.0719C198.735 14.0719 199.648 13.7813 200.52 13.2417C201.392 12.702 202.014 11.9964 202.471 11.1247C202.803 10.419 203.011 9.54728 203.011 8.59254Z" fill="#2B2F35"/>
    <path d="M214.966 0.332031V16.5625H212.433V0.332031H214.966Z" fill="#2B2F35"/>
    <path d="M225.219 2.86415V7.1812H231.694V9.71332H225.219V14.0304H233.022V16.5625H222.645V0.332031H233.022V2.86415H225.219Z" fill="#2B2F35"/>
    <path d="M252.117 2.86415H246.804V16.5625H244.272V2.86415H238.958V0.332031H252.159V2.86415H252.117Z" fill="#2B2F35"/>
    <path d="M267.891 10.2945L270.963 16.5625H268.057L265.276 10.7926H261.042V16.5625H258.51V0.332031H265.691C266.272 0.332031 266.853 0.415051 267.351 0.622602C268.348 0.954683 269.178 1.53582 269.8 2.32452C270.174 2.78113 270.506 3.32076 270.672 3.9019C270.88 4.48304 270.963 5.06418 270.963 5.68684C270.963 6.22647 270.88 6.7661 270.672 7.30573C270.465 7.84536 270.174 8.34348 269.842 8.8001C269.344 9.42275 268.68 9.92087 267.891 10.2945ZM261.042 8.4265H265.649C266.023 8.4265 266.397 8.34348 266.812 8.13593C267.227 7.92838 267.517 7.67932 267.766 7.34724C268.181 6.80761 268.389 6.26798 268.389 5.68684C268.389 4.85663 268.14 4.23398 267.642 3.69435C267.393 3.40378 267.102 3.19623 266.729 3.03019C266.355 2.86415 266.023 2.73962 265.649 2.73962H261.042V8.4265Z" fill="#2B2F35"/>
    <path d="M280.842 16.2305C279.804 15.7738 278.974 15.1097 278.268 14.2795C277.646 13.4908 277.189 12.6191 276.857 11.6228C276.567 10.6266 276.4 9.58884 276.4 8.46806C276.4 6.10199 277.023 4.15101 278.268 2.61514C278.933 1.74342 279.804 1.12077 280.842 0.664162C281.88 0.207551 283.001 0 284.163 0C285.367 0 286.446 0.249061 287.484 0.705672C288.521 1.16228 289.352 1.78493 290.016 2.61514C290.68 3.40383 291.137 4.27554 291.386 5.27178C291.635 6.26803 291.801 7.30578 291.842 8.46806C291.801 10.8756 291.178 12.7851 289.974 14.2795C289.269 15.1512 288.438 15.8154 287.401 16.272C286.363 16.7286 285.284 16.9361 284.121 16.9361C282.959 16.8946 281.88 16.6871 280.842 16.2305ZM286.321 14.0719C287.027 13.7814 287.567 13.3247 287.982 12.7436C288.77 11.7059 289.186 10.2945 289.186 8.46806C289.186 6.64162 288.77 5.18876 287.982 4.19252C287.567 3.65289 287.027 3.19628 286.363 2.90571C285.699 2.61514 284.993 2.4491 284.246 2.4491C283.416 2.4491 282.668 2.61514 281.963 2.90571C281.257 3.19628 280.718 3.65289 280.302 4.23403C279.555 5.18876 279.14 6.64162 279.099 8.50957C279.099 10.3775 279.514 11.7889 280.302 12.7851C280.718 13.3247 281.257 13.7814 281.921 14.0719C282.585 14.3625 283.291 14.5285 284.08 14.5285C284.869 14.487 285.616 14.3625 286.321 14.0719Z" fill="#2B2F35"/>
    <path d="M78.9369 7.72098C78.1898 8.05306 77.235 8.92477 76.9029 9.4644C76.1142 10.7512 76.4463 11.6644 76.1558 13.1173C76.0312 13.7815 75.8652 14.4456 75.6576 15.0683C75.3671 16.023 74.7444 16.7287 73.9972 17.3928C72.9595 18.3061 71.7972 18.8042 70.4274 18.8042C69.099 18.8042 68.4764 18.6381 67.4801 17.974C67.4801 17.974 70.4689 10.6682 74.3293 8.92477C69.2651 9.21534 66.733 15.6494 66.0688 16.8532C65.9028 16.5626 65.4046 15.7739 65.2801 15.4834C64.0763 12.9097 64.948 10.004 67.3556 8.46816C69.1821 7.30588 71.2161 6.68323 73.4161 6.60021C76.4878 6.5587 78.8954 7.72098 78.9369 7.72098Z" fill="#2B2F35"/>
    <path d="M56.9366 8.01155C57.3932 8.09457 58.0989 8.55118 58.3479 8.80024C58.9706 9.4644 58.8876 10.0455 59.2196 10.8757C59.3857 11.2493 59.5517 11.6229 59.7593 11.9965C60.0498 12.5361 60.5065 12.8682 61.0046 13.2003C61.7102 13.6154 62.4989 13.7815 63.3291 13.6154C64.1178 13.4494 64.4499 13.2833 64.9896 12.7852C64.9896 12.7852 65.1556 11.2908 65.6952 11.955C65.7367 11.7475 65.9443 11.2078 65.9858 11.0418C66.4009 9.33987 65.5292 7.72098 63.9103 7.09832C62.665 6.6002 61.3782 6.51718 60.0914 6.72473C58.3064 7.05681 56.9781 8.01155 56.9366 8.01155Z" fill="#2B2F35"/>
    <path d="M65.6952 0.249268C65.9027 0.747389 65.9857 1.66061 65.9027 2.07571C65.6952 3.07196 65.114 3.40404 64.6159 4.27575C64.3668 4.69085 64.1593 5.06444 63.9933 5.47954C63.7027 6.10219 63.7027 6.76636 63.7442 7.43052C63.8272 8.34374 64.2008 9.17394 64.9065 9.79659C65.5706 10.4192 65.9442 10.6268 66.7744 10.7513C66.7744 10.7513 68.2273 9.92112 67.9782 10.8343C68.1858 10.7513 68.8084 10.5853 69.016 10.5023C70.8009 9.75508 71.7141 7.88713 71.216 6.01917C70.8424 4.56632 70.0952 3.32102 69.016 2.28326C67.4801 0.788899 65.6952 0.249268 65.6952 0.249268Z" fill="#2B2F35"/>
    <path d="M65.5706 16.5211C65.5706 16.5211 60.963 16.8531 59.3856 11.2078C63.5781 9.83793 65.5706 10.4191 65.5706 10.4191V16.5211Z" fill="#2B2F35"/>
    <path d="M64.7404 19.385L63.2045 18.6378C63.163 18.6378 63.163 18.5963 63.163 18.5548L64.9895 14.9019C64.9895 14.8604 65.031 14.8604 65.0725 14.8604L66.6084 15.6075C66.6499 15.6075 66.6499 15.649 66.6499 15.6906L64.8234 19.3434C64.7819 19.385 64.7404 19.4265 64.7404 19.385Z" fill="#2B2F35"/>
</svg>
