<svg width="232" height="75" viewBox="0 0 232 75" fill="none" xmlns="http://www.w3.org/2000/svg">
    <path d="M32.4999 39.6081C32.4999 36.368 32.9627 33.3924 33.8554 30.6483C34.7811 27.9042 36.1036 25.5237 37.889 23.5069C39.6743 21.4901 41.8564 19.9362 44.4683 18.8121C47.0802 17.688 50.0888 17.126 53.4611 17.126C56.8665 17.126 59.8421 17.688 62.454 18.8121C65.0659 19.9362 67.2479 21.4901 69.0002 23.5069C70.7525 25.5237 72.108 27.9042 73.0007 30.6483C73.9265 33.3924 74.3563 36.4011 74.3563 39.6081C74.3563 42.8151 73.8934 45.8237 73.0007 48.5679C72.075 51.312 70.7525 53.6924 69.0002 55.7092C67.2479 57.726 65.0659 59.2799 62.454 60.404C59.8421 61.5281 56.8334 62.0902 53.4611 62.0902C50.0558 62.0902 47.0802 61.5281 44.4683 60.404C41.8564 59.2799 39.6743 57.726 37.889 55.7092C36.1036 53.6924 34.7811 51.312 33.8554 48.5679C32.9627 45.8237 32.4999 42.8481 32.4999 39.6081ZM78.1253 68.2728C77.3649 69.0662 76.5714 69.8267 75.7449 70.554C74.8853 71.2814 73.9926 71.9426 73.0668 72.5047C72.1411 73.0998 71.1493 73.5296 70.1243 73.8602C69.0994 74.1908 68.0084 74.3561 66.8843 74.3561C64.9667 74.3561 63.0821 74.0255 61.1315 73.3312C59.2139 72.6369 57.1971 71.8765 55.1142 70.9838C53.0313 70.0912 50.8162 69.2315 48.5349 68.405C46.2536 67.5784 43.7409 66.9833 41.0629 66.6527L42.6168 63.9086C44.6005 63.5449 46.5512 63.4457 48.4688 63.6441C50.3864 63.8425 52.304 64.14 54.1885 64.5698C56.073 64.9996 57.9576 65.4955 59.8421 66.0245C61.7266 66.5535 63.6111 66.9833 65.5287 67.314C67.4463 67.6446 69.3639 67.8099 71.3476 67.7768C73.3313 67.7438 75.3812 67.3801 77.4971 66.6858L78.1253 68.2728ZM43.0466 39.6081C43.0466 42.253 43.245 44.6996 43.6748 46.9478C44.1046 49.196 44.7328 51.1467 45.6255 52.7667C46.5181 54.3867 47.6422 55.6762 49.0308 56.6019C50.4194 57.5276 52.0725 57.9905 54.0232 57.9905C55.8085 57.9905 57.2963 57.5276 58.5527 56.6019C59.809 55.6762 60.8009 54.3867 61.5944 52.7667C62.3878 51.1467 62.9499 49.196 63.3136 46.9478C63.6773 44.6996 63.8426 42.253 63.8426 39.6081C63.8426 36.9631 63.6442 34.5165 63.2475 32.2683C62.8507 30.0201 62.2225 28.0695 61.396 26.4494C60.5364 24.8294 59.4453 23.54 58.0567 22.6143C56.6681 21.6885 54.982 21.2257 52.9983 21.2257C51.0807 21.2257 49.4937 21.6885 48.2043 22.6143C46.9149 23.54 45.89 24.8294 45.1295 26.4494C44.3691 28.0695 43.8401 30.0201 43.5095 32.2683C43.2119 34.5165 43.0466 36.9631 43.0466 39.6081Z" fill="#ADADAD"/>
    <path d="M81.2662 49.0309C81.2662 46.419 81.3323 44.0055 81.4645 41.7572C81.5968 39.509 81.6629 37.1616 81.6629 34.682L77.5632 34.1861V31.8387C78.2245 31.5742 79.051 31.3427 80.0098 31.0782C80.9686 30.8137 81.9935 30.6154 83.0184 30.417C84.0434 30.2186 85.0683 30.0533 86.0271 29.9211C86.9859 29.7888 87.8124 29.6566 88.4737 29.5905H90.5896C90.5896 32.6983 90.5235 35.74 90.3913 38.7486C90.259 41.7572 90.1929 44.6997 90.1929 47.5761C90.1929 50.9815 90.5235 53.395 91.2178 54.8828C91.9121 56.3706 93.1685 57.131 95.0199 57.131C96.3093 57.131 97.4996 56.6351 98.5906 55.6763C99.6817 54.7175 100.574 53.1305 101.302 50.9815V34.682L97.2681 34.1861V31.8387C97.8963 31.5742 98.6567 31.3427 99.5825 31.0782C100.508 30.8137 101.5 30.6154 102.492 30.417C103.517 30.2186 104.509 30.0533 105.501 29.9211C106.492 29.7888 107.352 29.6566 108.112 29.5905H110.228V56.9657L114.328 57.4617V59.6437C113.733 59.9082 113.039 60.1397 112.146 60.4042C111.286 60.6687 110.361 60.9001 109.402 61.1315C108.443 61.363 107.517 61.5613 106.592 61.6936C105.666 61.8258 104.839 61.9581 104.079 62.0242H101.963L101.533 54.6514H101.269C101.07 55.511 100.674 56.4037 100.145 57.2963C99.6155 58.189 98.9212 58.9825 98.0616 59.7099C97.202 60.4372 96.2101 61.0323 95.053 61.4621C93.8958 61.925 92.6064 62.1564 91.2178 62.1564C89.6308 62.1564 88.2422 61.9581 87.0189 61.5613C85.7957 61.1646 84.7377 60.4703 83.8781 59.4784C83.0184 58.4866 82.3572 57.131 81.8943 55.4779C81.4976 53.7257 81.2662 51.5766 81.2662 49.0309Z" fill="#ADADAD"/>
    <path d="M134.529 61.3298H117.403V58.9824C118.031 58.6518 118.659 58.3542 119.32 58.1558C119.982 57.9244 120.709 57.693 121.503 57.4946V34.6819L117.403 34.1859V31.8385C118.031 31.5741 118.791 31.3426 119.717 31.0781C120.643 30.8136 121.635 30.6153 122.66 30.4169C123.685 30.2185 124.71 30.0532 125.701 29.921C126.693 29.7887 127.553 29.6565 128.313 29.5903H130.429V57.5277C131.256 57.726 132.016 57.9575 132.677 58.1889C133.339 58.4203 133.967 58.6848 134.529 59.0154V61.3298ZM120.577 20.1346C120.577 18.6799 121.073 17.5558 122.065 16.7293C123.056 15.9027 124.313 15.4729 125.867 15.4729C127.421 15.4729 128.677 15.9027 129.669 16.7293C130.661 17.5558 131.157 18.6799 131.157 20.1346C131.157 21.5563 130.661 22.6473 129.669 23.4739C128.677 24.3004 127.421 24.7302 125.867 24.7302C124.313 24.7302 123.056 24.3335 122.065 23.4739C121.04 22.6473 120.577 21.5232 120.577 20.1346Z" fill="#ADADAD"/>
    <path d="M175.294 61.3297H158.863V58.9824C159.392 58.6848 159.92 58.4203 160.449 58.1889C160.978 57.9574 161.574 57.726 162.268 57.4615V42.8481C162.268 40.2362 161.904 38.1864 161.144 36.7317C160.383 35.2439 159.061 34.5165 157.176 34.5165C155.589 34.5165 154.234 35.0125 153.11 36.0374C151.986 37.0623 151.126 38.4178 150.531 40.1701V57.4615C151.192 57.6268 151.787 57.8252 152.283 58.0566C152.812 58.2881 153.341 58.5856 153.936 58.9493V61.2967H137.505V58.9493C138.529 58.4203 139.918 57.9244 141.604 57.4615V34.6488L137.505 34.1529V31.8055C138.034 31.541 138.761 31.3095 139.62 31.0781C140.48 30.8467 141.439 30.6483 142.431 30.4169C143.456 30.2185 144.481 30.0201 145.539 29.8879C146.597 29.7556 147.555 29.6234 148.415 29.5573H150.531V35.9382H150.597C151.457 34.1859 152.779 32.6981 154.498 31.4418C156.251 30.1854 158.334 29.5573 160.813 29.5573C162.433 29.5573 163.888 29.7556 165.144 30.1524C166.434 30.5491 167.525 31.2434 168.417 32.2353C169.31 33.2271 170.004 34.5827 170.467 36.2358C170.93 37.9219 171.195 40.0379 171.195 42.6167V57.4946C172.848 57.7921 174.203 58.288 175.294 58.9824V61.3297Z" fill="#ADADAD"/>
    <path d="M176.551 31.8388C178.138 30.8139 179.791 30.0865 181.51 29.6567V24.6643C181.841 24.3999 182.667 24.0692 183.957 23.5733C185.246 23.1104 186.734 22.7137 188.321 22.4161H190.437V30.2849H198.636V34.3184H190.437V50.3204C190.437 52.8662 190.767 54.6515 191.395 55.6434C192.024 56.6352 193.115 57.1311 194.602 57.1311C195.363 57.1311 196.189 57.065 197.115 56.9658C198.041 56.8666 198.901 56.6683 199.694 56.3707L200.124 58.4206C199.76 58.7842 199.198 59.181 198.471 59.6108C197.743 60.0406 196.917 60.4043 195.991 60.801C195.065 61.1647 194.04 61.4953 192.949 61.7267C191.858 61.9582 190.701 62.0904 189.511 62.0904C186.833 62.0904 184.816 61.3961 183.494 59.9745C182.171 58.5859 181.51 56.3046 181.51 53.1637V34.3184H176.551V31.8388Z" fill="#ADADAD"/>
    <path d="M230.971 56.1061C230.64 56.8004 230.111 57.5277 229.384 58.2551C228.656 58.9825 227.764 59.6106 226.706 60.1727C225.648 60.7347 224.424 61.1976 223.036 61.5282C221.647 61.8919 220.159 62.0572 218.539 62.0572C215.96 62.0572 213.712 61.6605 211.729 60.9C209.745 60.1396 208.092 59.0486 206.769 57.6269C205.447 56.2053 204.455 54.486 203.761 52.5023C203.066 50.5186 202.736 48.2704 202.736 45.7908C202.736 40.5008 204.124 36.4673 206.901 33.6901C209.679 30.9129 213.514 29.5243 218.44 29.5243C220.556 29.5243 222.54 29.8218 224.358 30.3839C226.21 30.979 227.73 31.9047 228.954 33.2272C230.177 34.5497 231.037 36.302 231.5 38.451C231.962 40.6 231.929 43.245 231.4 46.3197H212.357C212.39 49.5929 213.249 52.2048 214.869 54.1554C216.489 56.1061 218.903 57.0649 222.11 57.0649C223.465 57.0649 224.887 56.8665 226.375 56.4367C227.83 56.0069 228.987 55.4779 229.813 54.8167L230.971 56.1061ZM218.142 33.095C217.316 33.095 216.589 33.2272 215.96 33.5248C215.332 33.8223 214.77 34.3513 214.307 35.1118C213.844 35.8722 213.448 36.8971 213.183 38.2196C212.886 39.509 212.687 41.1621 212.555 43.1458H222.474C222.771 39.9057 222.573 37.4261 221.912 35.7069C221.25 33.9546 219.994 33.095 218.142 33.095Z" fill="#ADADAD"/>
    <path d="M2.01678 34.3182V45.2287H7.80261V47.2454H0V34.3182H2.01678Z" fill="#ADADAD"/>
    <path d="M14.9771 36.335V39.7735H20.1347V41.7902H14.9771V45.2287H21.1927V47.2454H12.9272V34.3182H21.1927V36.335H14.9771Z" fill="#ADADAD"/>
    <path d="M162.995 6.74454C162.995 7.86865 162.764 8.92663 162.268 9.91848C161.739 10.9103 161.012 11.7369 160.02 12.332C159.028 12.9271 157.97 13.2247 156.879 13.2247H152.647V0.264404H156.879C158.003 0.264404 159.028 0.561962 160.02 1.15708C161.012 1.75219 161.772 2.54568 162.268 3.5706C162.764 4.52939 162.995 5.58737 162.995 6.74454ZM160.945 6.84373C160.945 5.91799 160.78 5.12451 160.483 4.46327C160.119 3.76897 159.623 3.20691 158.962 2.77711C158.3 2.3473 157.573 2.14893 156.78 2.11587H154.697V11.241L156.78 11.2079C157.54 11.2079 158.267 10.9765 158.962 10.5467C159.656 10.1169 160.152 9.5548 160.516 8.8605C160.78 8.29845 160.945 7.60415 160.945 6.84373Z" fill="#ADADAD"/>
    <path d="M170.467 0.264404V13.1916H168.451V0.264404H170.467Z" fill="#ADADAD"/>
    <path d="M178.634 2.28118V5.71962H183.791V7.7364H178.634V11.1748H184.849V13.1916H176.584V0.264404H184.849V2.28118H178.634Z" fill="#ADADAD"/>
    <path d="M200.058 2.28118H195.826V13.1916H193.809V2.28118H189.577V0.264404H200.091V2.28118H200.058Z" fill="#ADADAD"/>
    <path d="M212.621 8.19926L215.068 13.1916H212.753L210.538 8.59601H207.166V13.1916H205.149V0.264404H210.869C211.332 0.264404 211.795 0.330528 212.191 0.495838C212.985 0.760333 213.646 1.2232 214.142 1.85138C214.44 2.21506 214.704 2.64486 214.836 3.10773C215.002 3.5706 215.068 4.03346 215.068 4.52939C215.068 4.9592 215.002 5.389 214.836 5.81881C214.671 6.24861 214.44 6.64535 214.175 7.00904C213.778 7.50496 213.249 7.90171 212.621 8.19926ZM207.166 6.71148H210.836C211.133 6.71148 211.431 6.64535 211.762 6.48004C212.092 6.31473 212.324 6.11636 212.522 5.85187C212.853 5.42206 213.018 4.99226 213.018 4.52939C213.018 3.86815 212.82 3.37222 212.423 2.94242C212.224 2.71099 211.993 2.54568 211.695 2.41343C211.398 2.28118 211.133 2.182 210.836 2.182H207.166V6.71148Z" fill="#ADADAD"/>
    <path d="M222.936 12.9272C222.11 12.5635 221.449 12.0345 220.887 11.3733C220.391 10.7451 220.027 10.0508 219.762 9.25734C219.531 8.46385 219.399 7.6373 219.399 6.74463C219.399 4.8601 219.895 3.30619 220.887 2.0829C221.416 1.3886 222.11 0.892672 222.936 0.528991C223.763 0.16531 224.656 0 225.581 0C226.54 0 227.4 0.198371 228.226 0.562053C229.053 0.925734 229.714 1.42166 230.243 2.0829C230.772 2.71108 231.136 3.40538 231.334 4.19886C231.533 4.99235 231.665 5.8189 231.698 6.74463C231.665 8.66222 231.169 10.1831 230.21 11.3733C229.648 12.0676 228.987 12.5966 228.16 12.9603C227.334 13.324 226.474 13.4893 225.548 13.4893C224.623 13.4562 223.763 13.2909 222.936 12.9272ZM227.301 11.208C227.863 10.9766 228.292 10.6129 228.623 10.15C229.251 9.32346 229.582 8.19935 229.582 6.74463C229.582 5.28991 229.251 4.13274 228.623 3.33925C228.292 2.90945 227.863 2.54577 227.334 2.31433C226.805 2.0829 226.243 1.95065 225.648 1.95065C224.986 1.95065 224.391 2.0829 223.829 2.31433C223.267 2.54577 222.837 2.90945 222.507 3.37231C221.912 4.13274 221.581 5.28991 221.548 6.77769C221.548 8.26548 221.878 9.38958 222.507 10.1831C222.837 10.6129 223.267 10.9766 223.796 11.208C224.325 11.4394 224.887 11.5717 225.515 11.5717C226.143 11.5386 226.739 11.4394 227.301 11.208Z" fill="#ADADAD"/>
    <path d="M62.1234 6.14964C61.5283 6.41414 60.7678 7.10844 60.5033 7.53824C59.8752 8.56316 60.1397 9.29052 59.9082 10.4477C59.809 10.9767 59.6768 11.5057 59.5115 12.0016C59.2801 12.762 58.7841 13.3241 58.189 13.8531C57.3625 14.5804 56.4367 14.9772 55.3457 14.9772C54.2877 14.9772 53.7918 14.8449 52.9983 14.3159C52.9983 14.3159 55.3788 8.49704 58.4535 7.10844C54.42 7.33987 52.4032 12.4645 51.8742 13.4233C51.7419 13.1918 51.3452 12.5637 51.246 12.3322C50.2872 10.2824 50.9815 7.96805 52.8991 6.74475C54.3538 5.81902 55.9739 5.32309 57.7261 5.25697C60.1727 5.22391 62.0903 6.14964 62.1234 6.14964Z" fill="#ADADAD"/>
    <path d="M44.6006 6.38102C44.9643 6.44714 45.5263 6.81082 45.7247 7.00919C46.2206 7.53818 46.1545 8.00105 46.419 8.66229C46.5512 8.95985 46.6835 9.2574 46.8488 9.55496C47.0802 9.98477 47.4439 10.2493 47.8407 10.5138C48.4027 10.8444 49.0309 10.9766 49.6921 10.8444C50.3203 10.7121 50.5848 10.5799 51.0146 10.1831C51.0146 10.1831 51.1468 8.99291 51.5767 9.5219C51.6097 9.35659 51.775 8.92678 51.8081 8.79454C52.1387 7.439 51.4444 6.14958 50.155 5.65366C49.1631 5.25691 48.1382 5.19079 47.1133 5.3561C45.6916 5.62059 44.6336 6.38102 44.6006 6.38102Z" fill="#ADADAD"/>
    <path d="M51.5766 0.198486C51.7419 0.595229 51.808 1.32259 51.7419 1.65321C51.5766 2.4467 51.1137 2.71119 50.717 3.40549C50.5186 3.73611 50.3533 4.03367 50.221 4.36429C49.9896 4.86022 49.9896 5.38921 50.0227 5.9182C50.0888 6.64556 50.3864 7.3068 50.9484 7.80273C51.4774 8.29865 51.775 8.46396 52.4362 8.56315C52.4362 8.56315 53.5934 7.90191 53.395 8.62927C53.5603 8.56315 54.0562 8.4309 54.2215 8.36478C55.6432 7.76966 56.3706 6.28188 55.9738 4.79409C55.6763 3.63693 55.0811 2.64507 54.2215 1.81852C52.9982 0.628291 51.5766 0.198486 51.5766 0.198486Z" fill="#ADADAD"/>
    <path d="M51.4774 13.1587C51.4774 13.1587 47.8075 13.4232 46.5511 8.92675C49.8904 7.83571 51.4774 8.29857 51.4774 8.29857V13.1587Z" fill="#ADADAD"/>
    <path d="M50.8162 15.4398L49.5929 14.8447C49.5598 14.8447 49.5598 14.8116 49.5598 14.7786L51.0145 11.8691C51.0145 11.8361 51.0476 11.8361 51.0807 11.8361L52.304 12.4312C52.337 12.4312 52.337 12.4642 52.337 12.4973L50.8823 15.4067C50.8492 15.4398 50.8162 15.4729 50.8162 15.4398Z" fill="#ADADAD"/>
</svg>
