<?xml version="1.0" standalone="no"?>
<!DOCTYPE svg PUBLIC "-//W3C//DTD SVG 20010904//EN">
<svg version="1.0" xmlns="http://www.w3.org/2000/svg"
 width="648.000000pt" height="648.000000pt" viewBox="0 0 648.000000 648.000000"
 preserveAspectRatio="xMidYMid meet">
<metadata>
Created by potrace 1.14, written by Peter Selinger 2001-2017
</metadata>
<g transform="translate(0.000000,648.000000) scale(0.100000,-0.100000)"
fill="#000000" stroke="none">
<path d="M3021 5467 c2 -55 -6 -81 -46 -133 -33 -43 -55 -93 -58 -133 -1 -16
-6 -20 -22 -14 -64 21 -187 6 -267 -32 l-37 -18 38 -27 c30 -22 43 -42 66
-106 15 -44 39 -101 54 -128 31 -59 101 -122 152 -138 22 -6 39 -12 39 -13 0
-1 -12 -25 -26 -54 -14 -29 -24 -54 -22 -56 5 -4 71 -35 74 -35 2 0 31 55 65
122 72 143 119 216 183 279 43 43 115 87 154 94 9 2 17 4 17 5 0 1 8 3 18 5
15 3 16 1 6 -11 -6 -8 -16 -14 -22 -14 -35 0 -183 -194 -244 -320 -46 -94 -46
-102 2 -118 103 -35 217 -4 296 80 32 34 68 108 74 153 1 6 3 12 4 15 1 3 4
28 6 57 10 117 17 133 93 196 19 15 31 28 28 28 -3 1 -9 2 -13 3 -5 1 -13 4
-18 8 -26 16 -177 38 -249 36 -64 -2 -79 0 -82 12 -5 33 -35 103 -55 133 -35
50 -105 112 -159 140 l-50 26 1 -42z"/>
<path d="M3017 4474 c-1 -1 -29 -5 -62 -7 -98 -9 -134 -16 -225 -42 -30 -9
-62 -18 -70 -20 -73 -18 -271 -125 -343 -185 -115 -96 -242 -254 -307 -380
-28 -55 -90 -216 -97 -250 -8 -40 -11 -55 -13 -55 -5 0 -23 -104 -39 -215 -9
-65 -7 -404 3 -470 18 -113 64 -290 96 -365 89 -210 205 -370 351 -485 24 -19
46 -38 47 -42 2 -4 8 -8 14 -8 5 0 23 -9 38 -20 72 -51 274 -138 360 -154 108
-22 126 -24 210 -32 137 -12 353 -4 406 16 17 7 23 7 19 0 -4 -7 3 -7 20 0 14
5 36 12 48 14 40 9 132 35 152 44 262 115 399 223 542 428 90 130 187 385 208
549 2 22 7 53 10 69 3 16 8 61 10 100 2 39 5 73 6 76 1 3 0 10 -1 15 -2 12 -2
106 0 120 2 6 1 14 0 20 -1 5 -3 34 -6 65 -3 52 -12 120 -20 165 -2 11 -6 38
-10 60 -7 48 -55 195 -91 285 -80 193 -248 397 -423 509 -52 34 -100 61 -107
61 -7 0 -13 5 -13 12 0 6 -3 9 -6 6 -3 -4 -33 6 -67 22 -84 37 -176 61 -332
86 -38 6 -303 13 -308 8z m208 -259 c132 -26 261 -116 344 -238 58 -86 123
-253 147 -382 4 -22 9 -47 10 -55 5 -21 13 -83 21 -160 14 -130 7 -581 -11
-666 -4 -20 -6 -34 -22 -131 -3 -21 -8 -41 -11 -45 -2 -5 -6 -17 -9 -28 -9
-42 -13 -57 -33 -114 -12 -32 -27 -66 -33 -74 -7 -8 -12 -17 -10 -19 3 -4 -28
-66 -37 -73 -4 -3 -17 -22 -30 -42 -47 -78 -156 -156 -256 -183 -59 -16 -195
-21 -245 -10 -14 3 -36 8 -50 11 -99 21 -249 137 -318 247 -59 95 -118 240
-136 332 -15 75 -29 154 -32 180 -2 17 -7 53 -10 80 -9 64 -10 448 -1 540 35
371 101 563 243 700 68 65 74 70 125 93 63 28 79 33 124 39 22 3 41 6 43 8 5
4 156 -4 187 -10z"/>
<path d="M2566 1643 c-1 -2 -23 -6 -47 -9 -41 -6 -88 -41 -89 -67 0 -5 -9 -22
-21 -38 -11 -16 -17 -29 -13 -29 5 0 3 -5 -4 -12 -21 -21 -13 -35 21 -36 17
-1 43 -4 57 -8 14 -3 41 -8 60 -11 19 -2 89 -20 155 -39 66 -19 125 -36 130
-37 6 -2 46 -17 90 -34 91 -35 112 -42 123 -44 4 0 18 -7 32 -14 29 -15 260
-110 365 -150 39 -14 78 -30 87 -36 10 -5 26 -9 36 -9 10 0 22 -4 27 -8 12
-11 100 -38 175 -54 89 -19 317 -16 370 5 8 3 33 11 55 18 49 15 212 104 235
129 3 3 34 29 70 59 110 92 153 139 144 159 -4 9 -8 19 -9 22 -2 3 -6 15 -10
28 -9 26 -23 27 -87 8 -25 -8 -62 -17 -82 -20 -20 -3 -54 -10 -75 -15 -65 -14
-372 -6 -476 13 -11 2 -38 7 -60 11 -22 4 -47 9 -55 10 -44 9 -197 46 -280 69
-105 29 -371 95 -410 102 -14 3 -40 6 -58 8 -18 3 -50 7 -70 11 -20 3 -53 8
-72 11 -38 6 -308 12 -314 7z"/>
</g>
</svg>
